<svg id="Layer_1" data-name="Layer 1" xmlns="http://www.w3.org/2000/svg" viewBox="0 0 218.75 39.35"><defs><style>.cls-1,.cls-3{fill:#ffbd00;}.cls-2{fill:#fff;}.cls-3{fill-rule:evenodd;}</style></defs><title>logo</title><path class="cls-1" d="M72.14,0A19.67,19.67,0,1,0,91.81,19.67,19.67,19.67,0,0,0,72.14,0Zm0,31.19A11.52,11.52,0,1,1,83.66,19.67,11.52,11.52,0,0,1,72.14,31.19Z"/><rect class="cls-1" x="99.78" y="23.86" width="15.62" height="13.61"/><rect class="cls-1" x="99.78" y="1.88" width="15.62" height="13.61"/><path class="cls-2" d="M210.42,23a2,2,0,0,1-.66.1,2.63,2.63,0,0,1-2-1.12l-2.17-2.66,2.8-3.45h1.9l-2.76,3.39L209,21a1.07,1.07,0,0,0,.84.47,1.5,1.5,0,0,0,.6-.13Z"/><rect class="cls-2" x="203.79" y="15.84" width="1.64" height="7.11"/><path class="cls-2" d="M196.74,21.41a1.87,1.87,0,0,0,.76.2.87.87,0,0,0,.72-.32l-2.7-5.45h1.77l1.82,3.66h.06l1.49-3.66h1.76l-2.62,5.61a2.39,2.39,0,0,1-2.2,1.69,2.67,2.67,0,0,1-.84-.11Z"/><path class="cls-2" d="M192.43,15.86h-1.76L187.81,23h1.64l.62-1.53H193l.62,1.53h1.7Zm-1.83,4.28.93-2.29.93,2.29Z"/><polygon class="cls-2" points="169.64 15.86 168.13 15.86 164.75 20.55 164.69 20.55 164.69 15.86 163.04 15.86 163.04 22.95 164.57 22.95 167.93 18.25 167.98 18.25 167.98 22.95 169.64 22.95 169.64 15.86"/><path class="cls-2" d="M207.17,1.62a3.68,3.68,0,1,0,3.72,3.68A3.67,3.67,0,0,0,207.17,1.62Zm0,5.84a2,2,0,0,1-2-2.16,2.06,2.06,0,1,1,4.11,0A2,2,0,0,1,207.17,7.46Z"/><path class="cls-2" d="M200.81,5a1.62,1.62,0,0,0,.79-1.32c0-1.17-1-1.9-2.54-1.9h-2.5V8.85h2.89C201,8.85,202,8,202,6.66A1.86,1.86,0,0,0,200.81,5Zm-2.6-1.86h.73c.57,0,1,.24,1,.74s-.33.76-.86.76h-.86Zm1.11,4.38h-1.11V5.83h1.13a.84.84,0,0,1,.93.83A.85.85,0,0,1,199.32,7.49Z"/><polygon class="cls-2" points="168.79 1.75 173.16 1.75 173.16 3.21 170.45 3.21 170.45 4.47 172.99 4.47 172.99 5.93 170.45 5.93 170.45 7.39 173.23 7.39 173.23 8.85 168.79 8.85 168.79 1.75"/><polygon class="cls-2" points="161.21 1.75 167.09 1.75 167.09 3.23 164.97 3.23 164.97 8.85 163.31 8.85 163.31 3.23 161.21 3.23 161.21 1.75"/><polygon class="cls-2" points="146.66 5.87 143.56 5.87 143.56 8.85 141.91 8.85 141.91 1.75 143.56 1.75 143.56 4.41 146.66 4.41 146.66 1.75 148.31 1.75 148.31 8.85 146.66 8.85 146.66 5.87"/><rect class="cls-2" x="137.87" y="1.75" width="1.66" height="7.09"/><polygon class="cls-2" points="133.89 8.85 133.89 4.6 133.83 4.6 132.13 7.75 131.06 7.75 129.34 4.6 129.28 4.6 129.28 8.85 127.65 8.85 127.65 1.75 129.3 1.75 131.6 5.84 133.89 1.75 135.5 1.75 135.5 8.85 133.89 8.85"/><rect class="cls-2" x="150.69" y="1.75" width="1.66" height="7.09"/><path class="cls-2" d="M178.12,1.75h-2.7V8.85h1.66V6.47h1a2.45,2.45,0,0,0,2.56-2.36A2.44,2.44,0,0,0,178.12,1.75ZM178,5h-.9V3.18h.9a.91.91,0,0,1,1,.93A.93.93,0,0,1,178,5Z"/><polygon class="cls-2" points="188.97 1.75 194.85 1.75 194.85 3.23 192.73 3.23 192.73 8.85 191.07 8.85 191.07 3.23 188.97 3.23 188.97 1.75"/><path class="cls-2" d="M131.49,15.73a3.68,3.68,0,1,0,3.72,3.67A3.67,3.67,0,0,0,131.49,15.73Zm0,5.84a2,2,0,0,1-2-2.16,2.06,2.06,0,1,1,4.11,0A2,2,0,0,1,131.49,21.57Z"/><path class="cls-2" d="M148.89,19.08a1.61,1.61,0,0,0,.79-1.32c0-1.17-1-1.9-2.55-1.9h-2.5V23h2.89c1.59,0,2.55-.89,2.55-2.19A1.86,1.86,0,0,0,148.89,19.08Zm-2.6-1.86H147c.57,0,1,.24,1,.74s-.33.76-.86.76h-.86Zm1.12,4.38h-1.12V19.94h1.13a.84.84,0,0,1,.93.83A.85.85,0,0,1,147.4,21.59Z"/><polygon class="cls-2" points="184.8 19.98 181.71 19.98 181.71 22.95 180.05 22.95 180.05 15.86 181.71 15.86 181.71 18.52 184.8 18.52 184.8 15.86 186.46 15.86 186.46 22.95 184.8 22.95 184.8 19.98"/><rect class="cls-2" x="152.04" y="15.86" width="1.66" height="7.09"/><polygon class="cls-2" points="155.46 15.86 161.34 15.86 161.34 17.33 159.22 17.33 159.22 22.95 157.56 22.95 157.56 17.33 155.46 17.33 155.46 15.86"/><path class="cls-2" d="M142.47,21.11a4.06,4.06,0,0,1-1.92.47,2,2,0,0,1-2.13-2.16,2,2,0,0,1,2.09-2.16,3.88,3.88,0,0,1,1.89.48V16.07a5.89,5.89,0,0,0-1.86-.34,3.7,3.7,0,0,0-3.79,3.69,3.64,3.64,0,0,0,3.83,3.69,5.4,5.4,0,0,0,1.89-.34Z"/><rect class="cls-2" x="174.02" y="15.86" width="1.66" height="7.09"/><polygon class="cls-2" points="218.75 15.86 217.23 15.86 213.85 20.55 213.8 20.55 213.8 15.86 212.14 15.86 212.14 22.95 213.67 22.95 217.03 18.25 217.09 18.25 217.09 22.95 218.75 22.95 218.75 15.86"/><path class="cls-2" d="M160,7a4.08,4.08,0,0,1-1.92.47,2,2,0,0,1-2.13-2.16A2,2,0,0,1,158,3.15a3.86,3.86,0,0,1,1.89.49V2A5.82,5.82,0,0,0,158,1.62a3.7,3.7,0,0,0-3.79,3.69A3.65,3.65,0,0,0,158.06,9,5.41,5.41,0,0,0,160,8.66Z"/><path class="cls-2" d="M187.71,7a4.07,4.07,0,0,1-1.92.47,2,2,0,0,1-2.13-2.16,2,2,0,0,1,2.09-2.16,3.86,3.86,0,0,1,1.89.49V2a5.84,5.84,0,0,0-1.86-.34A3.7,3.7,0,0,0,182,5.31,3.65,3.65,0,0,0,185.82,9a5.4,5.4,0,0,0,1.89-.34Z"/><path class="cls-2" d="M142.84,37.1a2,2,0,0,1-.66.1,2.63,2.63,0,0,1-2-1.12L138,33.43l2.8-3.45h1.9l-2.76,3.39,1.49,1.8a1.06,1.06,0,0,0,.84.47,1.47,1.47,0,0,0,.6-.13Z"/><rect class="cls-2" x="136.51" y="29.98" width="1.64" height="7.11"/><path class="cls-2" d="M129.46,35.54a1.86,1.86,0,0,0,.76.2.87.87,0,0,0,.72-.31L128.24,30H130l1.82,3.66h.06L133.37,30h1.76l-2.62,5.61a2.39,2.39,0,0,1-2.2,1.69,2.65,2.65,0,0,1-.84-.11Z"/><path class="cls-2" d="M154.81,30h-1.76l-2.86,7.09h1.64l.62-1.53h2.9l.62,1.53h1.7ZM153,34.27l.93-2.29.93,2.29Z"/><polygon class="cls-2" points="167.79 34.11 164.7 34.11 164.7 37.09 163.04 37.09 163.04 29.99 164.7 29.99 164.7 32.65 167.79 32.65 167.79 29.99 169.45 29.99 169.45 37.09 167.79 37.09 167.79 34.11"/><rect class="cls-2" x="159.01" y="29.99" width="1.66" height="7.09"/><polygon class="cls-2" points="178.43 29.99 176.91 29.99 173.54 34.69 173.48 34.69 173.48 29.99 171.82 29.99 171.82 37.09 173.35 37.09 176.72 32.38 176.77 32.38 176.77 37.09 178.43 37.09 178.43 29.99"/><path class="cls-2" d="M147.27,30h-2.7v7.09h1.66V34.7h1a2.37,2.37,0,1,0,0-4.72Zm-.14,3.29h-.9V31.41h.9a.91.91,0,0,1,1,.93A.93.93,0,0,1,147.13,33.27Z"/><rect class="cls-2" x="158.11" y="27.97" width="1.33" height="1.24"/><rect class="cls-2" x="160.24" y="27.97" width="1.33" height="1.24"/><path class="cls-3" d="M11.7,39.27l-.09-.1A4,4,0,0,0,10.49,38a10.21,10.21,0,0,1-2.1-2.15,10.75,10.75,0,0,1-1.67-3.45,6.67,6.67,0,0,1-.16-.68c0-.16-.09-.22-.27-.22l-6,0c-.26,0-.26,0-.26-.25v-28a7.62,7.62,0,0,1,.7.42c.54.4,1.09.81,1.61,1.24A10.5,10.5,0,0,1,4.24,7.08a11.88,11.88,0,0,1,1.7,3.85,39.6,39.6,0,0,1,.59,4.23c.22,1.66.4,3.32.6,5,0,.1,0,.21,0,.31s0,.23-.23.26a3.17,3.17,0,0,0-.89.14,1.94,1.94,0,0,0-.78,3,2.06,2.06,0,0,0,1.24.71l.92.19a.18.18,0,0,0,.23-.1c.4-.81.85-1.61,1.2-2.44s.64-1.71.92-2.58A16.63,16.63,0,0,0,10.7,15c0-1.19,0-2.39-.07-3.59-.09-1.77-.22-3.54-.32-5.31,0-.78-.08-1.56-.05-2.33A5.54,5.54,0,0,1,11.4.59c.33-.45.31-.35.58,0a5.25,5.25,0,0,1,1.14,3c0,1,0,2-.07,3-.11,2.26-.26,4.51-.37,6.77a17.15,17.15,0,0,0,.77,5.87,27.4,27.4,0,0,0,1.29,3.55c.29.62.63,1.23.95,1.84a.22.22,0,0,0,.29.14,12.51,12.51,0,0,0,1.34-.33,1.8,1.8,0,0,0,1.21-1.68,1.91,1.91,0,0,0-1.41-2,4.13,4.13,0,0,0-.73-.07l-.21,0c.06-.5.12-1,.18-1.45.2-1.69.39-3.39.61-5.08a24.86,24.86,0,0,1,.52-3.42,12,12,0,0,1,2.16-4.34,12.59,12.59,0,0,1,1-1.2,12.38,12.38,0,0,1,2.62-2l.11,0c0,.08,0,.15,0,.22q0,11.81,0,23.62v4.15c0,.26,0,.26-.25.26l-6.06,0c-.18,0-.25,0-.29.24A10.12,10.12,0,0,1,16,34.18a10.72,10.72,0,0,1-1.56,2.35,13.42,13.42,0,0,1-1.81,1.68,6.63,6.63,0,0,0-.76.83A1.94,1.94,0,0,0,11.7,39.27ZM2,7.28l-.07,0v.28q0,6.8,0,13.59c0,.12,0,.25,0,.37s0,.14.14.14l.8,0a.21.21,0,0,0,.24-.18,3.77,3.77,0,0,1,1.85-2.24A.21.21,0,0,0,5.06,19c0-.24-.06-.49-.09-.74-.21-1.81-.44-3.61-.64-5.42A10.29,10.29,0,0,0,2.47,7.92C2.31,7.71,2.14,7.5,2,7.28ZM21.47,21.67V7.29l-.07,0c-.21.3-.43.59-.64.89a9.68,9.68,0,0,0-1.64,4.28c-.28,2.18-.52,4.37-.79,6.55,0,.16.06.23.17.3a5.79,5.79,0,0,1,.72.52,3.9,3.9,0,0,1,1.11,1.74.18.18,0,0,0,.12.11ZM1.91,26.57c0,.92,0,1.83,0,2.74,0,.15,0,.2.2.2h4c.16,0,.22,0,.23-.2a11.73,11.73,0,0,1,.37-2.54c0-.11,0-.15-.11-.16l-.65-.15a3.85,3.85,0,0,1-1.78-1A3.79,3.79,0,0,1,3.08,23.8a.21.21,0,0,0-.24-.17c-.24,0-.48,0-.72,0s-.21,0-.21.21C1.92,24.77,1.91,25.67,1.91,26.57Zm17.35,2.94c.66,0,1.31,0,2,0,.19,0,.26-.06.25-.25,0,0,0-.07,0-.11,0-.75,0-1.49,0-2.24,0-1,0-2.07,0-3.1,0-.13,0-.16-.16-.16l-.65,0c-.31,0-.31,0-.41.29a3.8,3.8,0,0,1-2.19,2.32,9,9,0,0,1-1.23.34c-.13,0-.17.09-.13.22a11.5,11.5,0,0,1,.35,2.51c0,.15.06.2.21.2Zm-9.7-4.24c.32.16.62.29.91.45a4,4,0,0,1,1.08.86c.15.16.15.18.28,0a4,4,0,0,1,1.33-1c.21-.1.43-.19.68-.3a24.72,24.72,0,0,1-2.14-4.77A24.51,24.51,0,0,1,9.56,25.28Zm5.34,6.19h-2c-.18,0-.23,0-.23.22,0,1.23,0,2.45,0,3.68,0,.05,0,.11,0,.22A9.06,9.06,0,0,0,14.9,31.47Zm-6.4,0c.17,1.19,1.56,3.76,2.2,4a.42.42,0,0,0,0-.07c0-1.28,0-2.56,0-3.83,0-.14-.07-.16-.19-.16h-2Zm1-2h1c.23,0,.26,0,.21-.24a4.1,4.1,0,0,0-.3-1,2.3,2.3,0,0,0-1.57-1.18c-.14,0-.23,0-.27.16a9.52,9.52,0,0,0-.29,2.06c0,.13,0,.17.17.17Zm4.39,0h1.05c.12,0,.18,0,.18-.17a8,8,0,0,0-.28-2c-.07-.25-.1-.26-.35-.19a2.41,2.41,0,0,0-1.25.8,2.47,2.47,0,0,0-.56,1.4c0,.12,0,.17.16.16Z"/><rect class="cls-1" x="38.11" y="2.05" width="1" height="35.71"/></svg>