<?xml version="1.0" encoding="UTF-8" standalone="no"?>
<svg
   xmlns:dc="http://purl.org/dc/elements/1.1/"
   xmlns:cc="http://creativecommons.org/ns#"
   xmlns:rdf="http://www.w3.org/1999/02/22-rdf-syntax-ns#"
   xmlns:svg="http://www.w3.org/2000/svg"
   xmlns="http://www.w3.org/2000/svg"
   xmlns:sodipodi="http://sodipodi.sourceforge.net/DTD/sodipodi-0.dtd"
   xmlns:inkscape="http://www.inkscape.org/namespaces/inkscape"
   version="1.1"
   id="svg2"
   xml:space="preserve"
   width="566.92932"
   height="755.90533"
   viewBox="0 0 566.92932 755.90533"
   sodipodi:docname="logo_45_2.ai"><metadata
     id="metadata8"><rdf:RDF><cc:Work
         rdf:about=""><dc:format>image/svg+xml</dc:format><dc:type
           rdf:resource="http://purl.org/dc/dcmitype/StillImage" /></cc:Work></rdf:RDF></metadata><defs
     id="defs6"><clipPath
       clipPathUnits="userSpaceOnUse"
       id="clipPath18"><path
         d="M 0,566.929 H 425.197 V 0 H 0 Z"
         id="path16" /></clipPath></defs><sodipodi:namedview
     pagecolor="#ffffff"
     bordercolor="#666666"
     borderopacity="1"
     objecttolerance="10"
     gridtolerance="10"
     guidetolerance="10"
     inkscape:pageopacity="0"
     inkscape:pageshadow="2"
     inkscape:window-width="640"
     inkscape:window-height="480"
     id="namedview4" /><g
     id="g10"
     inkscape:groupmode="layer"
     inkscape:label="logo_45_2"
     transform="matrix(1.3333333,0,0,-1.3333333,0,755.90533)"><g
       id="g12"><g
         id="g14"
         clip-path="url(#clipPath18)"><g
           id="g20"
           transform="translate(273.1143,201.812)"><path
             d="m 0,0 v -33.19 h -7.998 v 26.9 h -5.272 v -11.414 c 0,-12.575 -2.309,-15.857 -7.714,-15.857 -1.713,0 -2.912,0.371 -4.3,0.972 v 5.591 c 0.365,-0.185 1.157,-0.277 1.938,-0.277 2.222,0 2.362,1.341 2.362,11.603 V 0 Z"
             style="fill:#f9a51a;fill-opacity:1;fill-rule:nonzero;stroke:none"
             id="path22" /></g><path
           d="m 294.982,168.622 h -7.997 v 33.19 h 7.997 z"
           style="fill:#f9a51a;fill-opacity:1;fill-rule:nonzero;stroke:none"
           id="path24" /><g
           id="g26"
           transform="translate(316.8486,174.9096)"><path
             d="m 0,0 h 5.226 v 26.899 h 7.993 V 0 h 1.713 V -13.132 H 7.124 v 6.841 H -7.998 v 33.19 H 0 Z"
             style="fill:#f9a51a;fill-opacity:1;fill-rule:nonzero;stroke:none"
             id="path28" /></g><g
           id="g30"
           transform="translate(344.5,201.812)"><path
             d="M 0,0 H 18.583 V -6.29 H 7.998 v -6.512 h 9.474 v -6.291 H 7.998 V -26.9 h 10.585 v -6.29 H 0 Z"
             style="fill:#f9a51a;fill-opacity:1;fill-rule:nonzero;stroke:none"
             id="path32" /></g><g
           id="g34"
           transform="translate(382.2773,209.7182)"><path
             d="m 0,0 c 0.23,-2.13 2.401,-2.361 4.114,-2.361 1.939,0 3.323,0.277 3.925,2.361 h 2.962 c 0,-3.977 -3.42,-5.967 -7.072,-5.967 -4.069,0 -6.753,1.666 -6.985,5.967 z m 1.156,-7.906 v -8.23 c 0,-3.651 -1.023,-8.969 -1.208,-12.621 H 0 l 6.747,20.851 h 7.628 V -41.097 H 6.747 v 7.721 c 0,3.559 1.107,8.965 1.482,12.483 H 8.183 L 1.29,-41.097 h -7.767 v 33.191 z"
             style="fill:#f9a51a;fill-opacity:1;fill-rule:nonzero;stroke:none"
             id="path36" /></g><g
           id="g38"
           transform="translate(301.1172,124.2387)"><path
             d="m 0,0 v -45.479 h -10.955 v 36.863 h -7.222 v -15.646 c 0,-17.225 -3.163,-21.72 -10.575,-21.72 -2.345,0 -3.991,0.503 -5.889,1.327 v 7.669 c 0.504,-0.258 1.579,-0.387 2.66,-0.387 3.04,0 3.229,1.842 3.229,15.898 V 0 Z"
             style="fill:#005aa9;fill-opacity:1;fill-rule:nonzero;stroke:none"
             id="path40" /></g><g
           id="g42"
           transform="translate(322.7207,124.2387)"><path
             d="m 0,0 3.544,-18.435 c 0.766,-3.739 1.142,-10.07 1.65,-14.376 h 0.129 c 0.504,4.116 1.008,11.147 1.641,14.376 L 10.513,0 H 25.778 V -45.479 H 15.327 v 15.965 c 0,4.368 0.319,16.023 0.571,19.818 H 15.837 L 9.058,-45.479 H 1.455 L -5.318,-9.696 H -5.38 c 0.185,-3.163 0.566,-13.615 0.566,-19.761 V -45.479 H -15.266 V 0 Z"
             style="fill:#005aa9;fill-opacity:1;fill-rule:nonzero;stroke:none"
             id="path44" /></g><g
           id="g46"
           transform="translate(365.8018,104.6645)"><path
             d="m 0,0 h 1.965 c 2.721,0 5.318,1.332 5.318,5.827 0,4.501 -2.346,5.576 -5.509,5.576 L 0,11.403 Z M 0,-25.902 H -10.96 V 19.576 H 4.937 c 6.333,0 13.302,-2.284 13.302,-13.877 0,-11.208 -6.836,-13.867 -13.302,-13.867 H 0 Z"
             style="fill:#005aa9;fill-opacity:1;fill-rule:nonzero;stroke:none"
             id="path48" /></g><g
           id="g50"
           transform="translate(80.7388,155.3559)"><path
             d="M 0,0 -25.671,-51.347 H 0 Z M 33.355,46.517 V -51.347 H 47.839 V -77.466 H 33.355 v -30.279 H 0 v 30.279 h -51.341 v 33.576 l 47.828,90.407 z"
             style="fill:#f9a51a;fill-opacity:1;fill-rule:nonzero;stroke:none"
             id="path52" /></g><g
           id="g54"
           transform="translate(172.8882,142.185)"><path
             d="m 0,0 c 5.704,6.584 12.293,12.293 26.993,12.293 23.258,0 35.325,-17.775 35.325,-52.01 0,-44.548 -16.238,-58.146 -45.859,-58.146 -32.913,0 -46.743,14.699 -46.743,50.682 H 2.855 C 3.076,-65.83 6.8,-71.534 15.358,-71.534 c 8.559,0 12.072,5.704 12.072,30.5 0,21.067 -3.513,27.209 -12.509,27.209 -7.9,0 -10.75,-4.824 -12.066,-11.408 h -31.38 l 4.387,84.918 H 56.614 V 33.355 H 2.855 Z"
             style="fill:#f9a51a;fill-opacity:1;fill-rule:nonzero;stroke:none"
             id="path56" /></g><g
           id="g58"
           transform="translate(66.916,291.2763)"><path
             d="m 0,0 h 96.11 c 29.323,0 44.799,-12.251 50.976,-18.789 C 153.264,-12.251 168.75,0 198.067,0 h 96.106 v 251.189 h -98.106 c -26.612,0 -45.664,-26.113 -45.848,-26.38 l -3.133,-4.362 -3.137,4.362 c -0.185,0.267 -19.237,26.38 -45.844,26.38 H 0 Z m 150.938,-59.829 h -7.704 v 33.742 c -2.906,3.744 -16.233,18.382 -47.124,18.382 H -7.705 v 266.599 h 105.81 c 24.113,0 42.033,-17.606 48.981,-25.681 6.944,8.075 24.869,25.681 48.981,25.681 h 105.81 V -7.705 h -103.81 c -30.865,0 -44.202,-14.612 -47.129,-18.387 z"
             style="fill:#005aa9;fill-opacity:1;fill-rule:nonzero;stroke:none"
             id="path60" /></g><g
           id="g62"
           transform="translate(214.001,224.8012)"><path
             d="M 0,0 -3.138,4.413 C -3.848,5.396 -21.16,28.782 -60.97,28.782 h -122.804 v 247.744 l 32.969,-1.137 -0.262,-7.705 -25.003,0.864 V 36.487 h 115.1 c 34.528,0 53.867,-16.335 60.97,-23.89 7.103,7.555 26.447,23.89 60.975,23.89 h 115.099 v 232.061 l -25.002,-0.864 -0.262,7.705 32.969,1.137 V 28.782 H 60.975 C 20.944,28.782 3.313,4.655 3.138,4.413 Z"
             style="fill:#005aa9;fill-opacity:1;fill-rule:nonzero;stroke:none"
             id="path64" /></g><g
           id="g66"
           transform="translate(137.4673,309.9843)"><path
             d="m 0,0 c -13.301,0 -22.533,1.97 -23.511,2.191 l -8.229,1.831 157.455,116.73 4.593,-6.193 L -12.838,8.445 C 5.375,6.717 47.386,6.892 76.23,39.831 l 5.797,-5.077 C 56.511,5.616 22.456,0 0,0"
             style="fill:#005aa9;fill-opacity:1;fill-rule:nonzero;stroke:none"
             id="path68" /></g><g
           id="g70"
           transform="translate(245.8359,447.0786)"><path
             d="m 0,0 c 10.317,-6.286 33.668,-23.13 38.596,-49.228 3.348,-17.729 -2.485,-36.097 -17.36,-54.7 22.081,0.416 38.679,7.746 48.796,21.993 19.01,26.777 10.158,71.504 -10.467,93.605 -6.789,7.273 -20.671,17.899 -37.628,7.756 z M 17.127,-159.909 H 9.422 v 48.693 c -20.548,1.527 -46.661,8.065 -79.805,22.667 l 3.107,7.051 c 30.263,-13.332 56.747,-20.728 78.653,-22.178 16.201,18.362 22.811,36.184 19.652,52.982 -5.498,29.251 -39.012,46.383 -39.351,46.553 l -5.082,2.551 31.041,27.42 C 33.54,35.541 50.868,32.285 65.202,16.927 87.844,-7.345 97.405,-56.686 76.313,-86.395 68.072,-98.003 51.212,-112.024 17.127,-111.561 Z"
             style="fill:#005aa9;fill-opacity:1;fill-rule:nonzero;stroke:none"
             id="path72" /></g><g
           id="g74"
           transform="translate(247.0107,284.6913)"><path
             d="m 0,0 h -7.705 c 0,30.572 -12.18,57.004 -12.308,57.272 l 6.985,3.266 C -12.499,59.401 0,32.347 0,0"
             style="fill:#005aa9;fill-opacity:1;fill-rule:nonzero;stroke:none"
             id="path76" /></g><g
           id="g78"
           transform="translate(281.709,448.1909)"><path
             d="m 0,0 c 0,-3.22 -2.613,-5.833 -5.833,-5.833 -3.22,0 -5.832,2.613 -5.832,5.833 0,3.22 2.612,5.833 5.832,5.833 C -2.613,5.833 0,3.22 0,0"
             style="fill:#005aa9;fill-opacity:1;fill-rule:nonzero;stroke:none"
             id="path80" /></g><g
           id="g82"
           transform="translate(87.6104,509.6181)"><path
             d="m 0,0 h 1.167 c 1.615,0 3.158,0.792 3.158,3.457 0,2.669 -1.393,3.312 -3.271,3.312 H 0 Z m 0,-15.374 h -6.507 v 26.993 h 9.439 c 3.759,0 7.895,-1.353 7.895,-8.235 0,-6.655 -4.064,-8.234 -7.895,-8.234 L 0,-4.85 Z"
             style="fill:#005aa9;fill-opacity:1;fill-rule:nonzero;stroke:none"
             id="path84" /></g><g
           id="g86"
           transform="translate(101.8804,521.2363)"><path
             d="M 0,0 H 15.111 V -5.113 H 6.506 v -5.303 h 7.705 v -5.112 H 6.506 v -6.352 h 8.605 v -5.113 l -15.111,0 z"
             style="fill:#005aa9;fill-opacity:1;fill-rule:nonzero;stroke:none"
             id="path88" /></g><g
           id="g90"
           transform="translate(126.3066,509.6181)"><path
             d="m 0,0 h 1.651 c 1.584,0 2.675,0.941 2.675,3.384 0,2.403 -1.091,3.385 -2.711,3.385 H 0 Z m 0,-15.374 h -6.506 v 26.993 h 10.23 c 4.058,0 7.103,-2.299 7.103,-6.805 0,-4.099 -1.162,-5.678 -3.683,-6.846 1.955,-0.56 3.384,-1.99 3.384,-4.809 v -5.153 c 0,-1.95 0.597,-2.516 1.163,-2.516 v -0.864 H 5.977 c -1.651,0 -1.955,1.43 -1.955,3.493 v 4.439 c 0,1.728 -0.561,2.592 -2.597,2.592 L 0,-4.85 Z"
             style="fill:#005aa9;fill-opacity:1;fill-rule:nonzero;stroke:none"
             id="path92" /></g><g
           id="g94"
           transform="translate(90.8047,466.5141)"><path
             d="M 0,0 -1.729,11.881 H -1.77 L -3.457,0 Z M 2.253,16.732 8.234,-10.261 H 1.841 L 0.864,-4.85 H -4.1 l -0.822,-5.411 h -6.471 l 5.869,26.993 z"
             style="fill:#005aa9;fill-opacity:1;fill-rule:nonzero;stroke:none"
             id="path96" /></g><g
           id="g98"
           transform="translate(106.6572,465.2387)"><path
             d="m 0,0 v -1.692 c 0,-2.443 0.941,-3.081 2.515,-3.081 1.317,0 2.145,0.977 2.145,2.628 0,1.615 -0.828,2.52 -2.479,3.534 l -3.91,2.407 c -2.293,1.389 -3.836,3.873 -3.836,7.406 0,4.773 3.158,7.407 8.008,7.407 4.398,0 8.085,-2.407 8.085,-8.271 V 9.886 H 4.66 v 0.565 c 0,2.33 -0.864,3.307 -2.294,3.307 -1.276,0 -1.991,-0.792 -1.991,-1.99 0,-1.471 0.53,-2.294 2.104,-3.235 L 6.506,6.09 c 2.402,-1.466 4.022,-3.308 4.022,-7.443 0,-5.606 -3.049,-8.271 -8.162,-8.271 -5.637,0 -8.307,2.593 -8.307,7.628 l 0,1.996 z"
             style="fill:#005aa9;fill-opacity:1;fill-rule:nonzero;stroke:none"
             id="path100" /></g><g
           id="g102"
           transform="translate(127.2456,471.6279)"><path
             d="m 0,0 h 1.167 c 1.616,0 3.159,0.792 3.159,3.457 0,2.669 -1.394,3.312 -3.271,3.312 H 0 Z m 0,-15.374 h -6.506 v 26.993 h 9.438 c 3.76,0 7.895,-1.353 7.895,-8.235 0,-6.655 -4.063,-8.234 -7.895,-8.234 L 0,-4.85 Z"
             style="fill:#005aa9;fill-opacity:1;fill-rule:nonzero;stroke:none"
             id="path104" /></g><g
           id="g106"
           transform="translate(141.5156,483.246)"><path
             d="M 0,0 H 15.111 V -5.113 H 6.506 v -5.303 h 7.705 v -5.112 H 6.506 v -6.352 h 8.605 v -5.113 l -15.111,0 z"
             style="fill:#005aa9;fill-opacity:1;fill-rule:nonzero;stroke:none"
             id="path108" /></g><g
           id="g110"
           transform="translate(165.937,471.6279)"><path
             d="m 0,0 h 1.651 c 1.584,0 2.675,0.941 2.675,3.384 0,2.403 -1.091,3.385 -2.711,3.385 H 0 Z m 0,-15.374 h -6.506 v 26.993 h 10.23 c 4.058,0 7.103,-2.299 7.103,-6.805 0,-4.099 -1.162,-5.678 -3.682,-6.846 1.954,-0.56 3.384,-1.99 3.384,-4.809 v -5.154 c 0,-1.949 0.596,-2.515 1.162,-2.515 v -0.864 H 5.977 c -1.651,0 -1.955,1.43 -1.955,3.493 v 4.439 c 0,1.728 -0.561,2.592 -2.597,2.592 L 0,-4.85 Z"
             style="fill:#005aa9;fill-opacity:1;fill-rule:nonzero;stroke:none"
             id="path112" /></g><g
           id="g114"
           transform="translate(189.9814,466.5141)"><path
             d="M 0,0 -1.728,11.881 H -1.77 L -3.457,0 Z M 2.253,16.732 8.234,-10.261 H 1.841 L 0.864,-4.85 h -4.963 l -0.823,-5.411 h -6.471 l 5.869,26.993 z"
             style="fill:#005aa9;fill-opacity:1;fill-rule:nonzero;stroke:none"
             id="path116" /></g><g
           id="g118"
           transform="translate(90.8047,428.5214)"><path
             d="M 0,0 -1.729,11.881 H -1.77 L -3.457,0 Z M 2.253,16.731 8.234,-10.261 H 1.841 l -0.977,5.41 H -4.1 l -0.822,-5.41 h -6.471 l 5.869,26.992 z"
             style="fill:#005aa9;fill-opacity:1;fill-rule:nonzero;stroke:none"
             id="path120" /></g><g
           id="g122"
           transform="translate(107.5967,423.1093)"><path
             d="m 0,0 h 1.615 c 1.846,0 2.669,0.751 2.669,2.86 v 11.65 c 0,2.032 -0.823,2.782 -2.705,2.782 H 0 Z m -6.507,22.143 h 9.063 c 5.678,0 8.235,-2.068 8.235,-6.841 V 2.145 c 0,-4.439 -2.593,-6.995 -8.235,-6.995 h -9.063 z"
             style="fill:#005aa9;fill-opacity:1;fill-rule:nonzero;stroke:none"
             id="path124" /></g><g
           id="g126"
           transform="translate(90.8047,390.5312)"><path
             d="M 0,0 -1.729,11.881 H -1.77 L -3.457,0 Z M 2.253,16.731 8.234,-10.261 H 1.841 L 0.864,-4.845 H -4.1 l -0.822,-5.416 h -6.471 l 5.869,26.992 z"
             style="fill:#005aa9;fill-opacity:1;fill-rule:nonzero;stroke:none"
             id="path128" /></g><g
           id="g130"
           transform="translate(106.6572,389.2548)"><path
             d="m 0,0 v -1.692 c 0,-2.443 0.941,-3.086 2.515,-3.086 1.317,0 2.145,0.983 2.145,2.633 0,1.615 -0.828,2.52 -2.479,3.534 l -3.91,2.407 c -2.293,1.389 -3.836,3.873 -3.836,7.407 0,4.773 3.158,7.406 8.008,7.406 4.398,0 8.085,-2.407 8.085,-8.271 V 9.886 H 4.66 v 0.566 c 0,2.33 -0.864,3.307 -2.294,3.307 -1.276,0 -1.991,-0.792 -1.991,-1.99 0,-1.472 0.53,-2.295 2.104,-3.236 L 6.506,6.09 c 2.402,-1.466 4.022,-3.307 4.022,-7.443 0,-5.606 -3.049,-8.27 -8.162,-8.27 -5.637,0 -8.307,2.592 -8.307,7.627 l 0,1.996 z"
             style="fill:#005aa9;fill-opacity:1;fill-rule:nonzero;stroke:none"
             id="path132" /></g><g
           id="g134"
           transform="translate(130.5557,380.2695)"><path
             d="m 0,0 h -5.977 v 21.88 h -5.112 v 5.113 H 4.773 V 21.88 H 0 Z"
             style="fill:#005aa9;fill-opacity:1;fill-rule:nonzero;stroke:none"
             id="path136" /></g><g
           id="g138"
           transform="translate(144.374,395.644)"><path
             d="m 0,0 h 1.651 c 1.584,0 2.674,0.941 2.674,3.384 0,2.403 -1.09,3.385 -2.71,3.385 H 0 Z M 0,-15.374 H -6.507 V 11.619 H 3.724 c 4.058,0 7.103,-2.299 7.103,-6.805 0,-4.099 -1.168,-5.678 -3.683,-6.846 1.955,-0.56 3.384,-1.99 3.384,-4.809 v -5.153 c 0,-1.95 0.597,-2.515 1.163,-2.515 v -0.865 H 5.977 c -1.652,0 -1.955,1.43 -1.955,3.493 v 4.439 c 0,1.728 -0.561,2.592 -2.598,2.592 L 0,-4.85 Z"
             style="fill:#005aa9;fill-opacity:1;fill-rule:nonzero;stroke:none"
             id="path140" /></g><g
           id="g142"
           transform="translate(168.4185,390.5312)"><path
             d="M 0,0 -1.729,11.881 H -1.77 L -3.457,0 Z M 2.252,16.731 8.234,-10.261 H 1.841 L 0.864,-4.845 H -4.1 l -0.822,-5.416 h -6.471 l 5.869,26.992 z"
             style="fill:#005aa9;fill-opacity:1;fill-rule:nonzero;stroke:none"
             id="path144" /></g><path
           d="m 257.878,55.23 h 132.196 v 90.925 H 257.878 Z M 397.784,47.525 H 250.179 V 153.86 h 147.605 z"
           style="fill:#005aa9;fill-opacity:1;fill-rule:nonzero;stroke:none"
           id="path146" /></g></g></g></svg>
