<svg width="492" height="221" viewBox="0 0 492 221" fill="none" xmlns="http://www.w3.org/2000/svg">
<path d="M324.955 10.5416V54.7949H314.291V18.9283H307.262V34.1469C307.262 50.9136 304.183 55.2896 296.977 55.2896C294.693 55.2896 293.094 54.7949 291.243 53.9936V46.5389C291.73 46.7856 292.786 46.9083 293.827 46.9083C296.79 46.9083 296.977 45.1203 296.977 31.4376V10.5416H324.955Z" fill="#F9A51A"/>
<path d="M354.112 54.7949H343.45V10.5416H354.112V54.7949Z" fill="#F9A51A"/>
<path d="M383.268 46.4115H390.236V10.5461H400.893V46.4115H403.177V63.9208H392.766V54.7995H372.604V10.5461H383.268V46.4115Z" fill="#F9A51A"/>
<path d="M420.136 10.5416H444.914V18.9283H430.8V27.6109H443.432V35.9989H430.8V46.4083H444.914V54.7949H420.136V10.5416Z" fill="#F9A51A"/>
<path d="M470.506 -6.90643e-06C470.813 2.83999 473.707 3.14799 475.991 3.14799C478.577 3.14799 480.422 2.77866 481.225 -6.90643e-06H485.174C485.174 5.30266 480.614 7.95599 475.745 7.95599C470.319 7.95599 466.741 5.73466 466.431 -6.90643e-06H470.506ZM472.047 10.5413V21.5147C472.047 26.3827 470.683 33.4733 470.437 38.3427H470.506L479.502 10.5413H489.673V54.796H479.502V44.5013C479.502 39.756 480.978 32.548 481.478 27.8573H481.417L472.226 54.796H461.87V10.5413H472.047Z" fill="#F9A51A"/>
<path d="M362.292 113.973V174.611H347.686V125.461H338.056V146.322C338.056 169.289 333.839 175.282 323.956 175.282C320.83 175.282 318.635 174.611 316.104 173.513V163.287C316.776 163.631 318.21 163.803 319.651 163.803C323.704 163.803 323.956 161.347 323.956 142.606V113.973H362.292Z" fill="#005AA9"/>
<path d="M391.097 113.973L395.823 138.553C396.844 143.538 397.345 151.979 398.023 157.721H398.195C398.867 152.233 399.539 142.858 400.383 138.553L405.115 113.973H425.468V174.611H411.533V153.325C411.533 147.501 411.959 131.961 412.295 126.901H412.213L403.175 174.611H393.037L384.007 126.901H383.924C384.171 131.118 384.679 145.054 384.679 153.249V174.611H370.743V113.973H391.097Z" fill="#005AA9"/>
<path d="M448.539 140.072H451.159C454.787 140.072 458.249 138.296 458.249 132.302C458.249 126.301 455.121 124.868 450.904 124.868H448.539V140.072ZM448.539 174.608H433.925V113.97H455.121C463.565 113.97 472.857 117.016 472.857 132.473C472.857 147.417 463.743 150.962 455.121 150.962H448.539V174.608Z" fill="#005AA9"/>
<path d="M68.4547 72.483L34.2267 140.946H68.4547V72.483ZM112.928 10.4604V140.946H132.24V175.771H112.928V216.143H68.4547V175.771H0V131.003L63.7707 10.4604H112.928Z" fill="#F9A51A"/>
<path d="M191.321 90.0443C198.926 81.2656 207.711 73.6536 227.311 73.6536C258.322 73.6536 274.411 97.3536 274.411 143C274.411 202.398 252.761 220.528 213.266 220.528C169.382 220.528 150.942 200.93 150.942 152.952H195.127C195.422 177.818 200.387 185.423 211.798 185.423C223.21 185.423 227.894 177.818 227.894 144.756C227.894 116.667 223.21 108.478 211.215 108.478C200.682 108.478 196.882 114.91 195.127 123.688H153.287L159.137 10.4643H266.806V45.5709H195.127L191.321 90.0443Z" fill="#F9A51A"/>
<path d="M304.64 205.984H480.902V84.7509H304.64V205.984ZM491.182 216.258H294.375V74.4776H491.182V216.258Z" fill="#005AA9"/>
</svg>
